{"glyphs":{"A":{"ha":1011,"x_min":18,"x_max":996,"o":"m 606 186 l 708 186 l 662 334 l 346 334 l 300 186 l 408 186 l 408 0 l 18 0 l 18 186 l 95 186 l 375 1028 l 647 1028 l 921 186 l 996 186 l 996 0 l 606 0 l 606 186 m 399 507 l 607 507 l 503 842 l 399 507 z "},"D":{"ha":996,"x_min":56,"x_max":954,"o":"m 56 1028 l 450 1028 q 586 1010 521 1028 q 706 958 650 991 q 808 879 762 925 q 886 775 854 832 q 937 652 919 718 q 954 515 954 587 q 937 378 954 444 q 886 255 919 313 q 808 151 854 198 q 706 70 762 104 q 586 18 650 37 q 450 0 521 0 l 56 0 l 56 186 l 138 186 l 138 842 l 56 842 l 56 1028 m 363 842 l 363 186 l 449 186 q 553 212 504 186 q 637 282 602 237 q 694 386 673 326 q 715 515 715 446 q 694 644 715 584 q 637 747 673 703 q 553 817 602 791 q 449 842 504 842 l 363 842 z "},"E":{"ha":936,"x_min":77,"x_max":895,"o":"m 77 1028 l 895 1028 l 895 677 l 673 677 l 673 823 l 410 823 l 410 621 l 614 621 l 614 424 l 410 424 l 410 186 l 673 186 l 673 368 l 895 368 l 895 0 l 77 0 l 77 186 l 184 186 l 184 823 l 77 823 l 77 1028 z "},"I":{"ha":549,"x_min":77,"x_max":517,"o":"m 77 1028 l 517 1028 l 517 842 l 408 842 l 408 186 l 517 186 l 517 0 l 77 0 l 77 186 l 183 186 l 183 842 l 77 842 l 77 1028 z "},"N":{"ha":1152,"x_min":77,"x_max":1117,"o":"m 726 1028 l 1117 1028 l 1117 842 l 1034 842 l 1034 0 l 808 0 l 380 665 l 380 186 l 467 186 l 467 0 l 77 0 l 77 186 l 161 186 l 161 842 l 78 842 l 78 1028 l 389 1028 l 814 355 l 814 842 l 726 842 l 726 1028 z "},"O":{"ha":1099,"x_min":45,"x_max":1040,"o":"m 542 -18 q 408 1 472 -18 q 289 54 345 20 q 189 137 234 89 q 112 245 144 186 q 62 372 80 304 q 45 514 45 440 q 62 656 45 588 q 112 784 80 724 q 189 891 144 843 q 289 975 234 940 q 408 1028 345 1009 q 542 1047 472 1047 q 676 1028 612 1047 q 795 975 740 1009 q 896 891 850 940 q 973 784 941 843 q 1023 656 1005 724 q 1040 514 1040 588 q 1023 373 1040 441 q 973 245 1005 304 q 896 137 941 186 q 795 54 850 89 q 676 1 740 20 q 542 -18 612 -18 m 542 195 q 650 220 601 195 q 734 289 699 245 q 789 391 770 333 q 808 514 808 449 q 789 638 808 580 q 733 740 769 696 q 649 809 698 784 q 542 835 600 835 q 435 809 484 835 q 351 740 386 784 q 295 638 315 696 q 275 514 275 580 q 295 391 275 449 q 351 289 315 333 q 435 220 386 245 q 542 195 484 195 z "},"R":{"ha":1038,"x_min":77,"x_max":1010,"o":"m 77 1028 l 621 1028 q 762 1004 700 1028 q 867 941 825 981 q 933 849 910 901 q 956 739 956 796 q 944 648 956 687 q 912 578 933 608 q 859 524 890 547 q 788 481 828 500 q 849 428 823 464 q 889 334 876 391 l 924 200 l 1008 200 l 1010 0 l 711 0 l 671 244 q 652 319 665 288 q 618 371 640 351 q 567 400 597 391 q 496 410 537 410 l 408 410 l 408 186 l 503 186 l 503 0 l 77 0 l 77 186 l 183 186 l 183 842 l 77 842 l 77 1028 m 408 842 l 408 593 l 543 593 q 613 600 582 593 q 666 622 644 607 q 700 661 688 637 q 711 715 711 684 q 669 808 711 775 q 543 842 626 842 l 408 842 z "},"W":{"ha":1598,"x_min":14,"x_max":1585,"o":"m 1145 1028 l 1585 1028 l 1585 842 l 1492 842 l 1255 0 l 962 0 l 807 642 l 648 0 l 358 0 l 117 842 l 14 842 l 14 1028 l 454 1028 l 454 842 l 347 842 l 498 288 l 681 1026 l 933 1026 l 1112 288 l 1264 842 l 1145 842 l 1145 1028 z "},"X":{"ha":1069,"x_min":22,"x_max":1018,"o":"m 582 1028 l 1018 1028 l 1018 842 l 983 842 l 671 511 l 982 186 l 1015 186 l 1015 0 l 579 0 l 579 186 l 683 186 l 524 354 l 366 186 l 458 186 l 458 0 l 22 0 l 22 186 l 69 186 l 376 511 l 62 842 l 25 842 l 25 1028 l 461 1028 l 461 842 l 357 842 l 523 667 l 687 842 l 582 842 l 582 1028 z "}," ":{"ha":278,"x_min":0,"x_max":0,"o":""},"a":{"ha":868,"x_min":49,"x_max":779,"o":"m 486 38 q 443 13 463 23 q 404 -4 423 2 q 363 -14 384 -11 q 317 -17 342 -17 q 204 0 254 -17 q 120 48 154 18 q 67 119 85 78 q 49 208 49 160 q 67 298 49 257 q 121 369 86 340 q 208 415 157 399 q 325 432 259 432 q 413 427 373 432 q 486 414 452 422 l 486 436 q 476 482 486 463 q 448 514 466 501 q 404 532 429 526 q 347 538 378 538 q 235 525 283 538 q 142 489 186 513 l 77 621 q 221 693 146 668 q 382 718 297 718 q 504 704 448 718 q 600 656 559 689 q 662 570 640 623 q 685 441 685 517 l 685 186 l 779 186 l 779 0 l 486 0 l 486 38 m 332 143 q 419 159 380 143 q 486 197 458 174 l 486 286 l 323 286 q 293 281 308 286 q 266 268 278 277 q 247 246 254 259 q 240 216 240 233 q 263 164 240 185 q 332 143 286 143 z "},"d":{"ha":949,"x_min":49,"x_max":914,"o":"m 470 1055 l 777 1055 l 777 186 l 914 186 l 914 0 l 568 0 l 568 27 q 493 -3 532 8 q 416 -14 455 -14 q 268 15 335 -14 q 152 94 200 44 q 76 212 103 144 q 49 357 49 279 q 76 501 49 434 q 150 617 102 568 q 265 695 198 667 q 412 724 332 724 q 494 715 456 724 q 568 691 533 707 l 568 869 l 470 869 l 470 1055 m 427 174 q 508 197 472 175 q 568 254 545 218 l 568 460 q 507 516 545 496 q 427 536 469 536 q 361 524 392 536 q 307 487 330 511 q 270 430 283 463 q 256 355 256 397 q 270 280 256 313 q 307 223 283 246 q 361 187 330 199 q 427 174 392 175 z "},"e":{"ha":804,"x_min":35,"x_max":755,"o":"m 237 307 l 239 286 q 264 233 246 256 q 307 194 282 210 q 361 171 331 178 q 421 163 391 163 q 479 166 452 163 q 532 177 507 170 q 583 192 558 183 q 632 210 607 200 l 707 71 q 636 30 668 47 q 571 3 604 14 q 502 -13 538 -8 q 416 -18 465 -18 q 254 12 325 -18 q 134 94 182 42 q 60 214 85 145 q 35 361 35 283 q 61 506 35 438 q 137 624 88 574 q 254 704 186 675 q 404 733 321 733 q 551 706 487 733 q 659 630 615 678 q 727 516 703 581 q 753 375 751 450 q 755 341 755 358 q 754 307 755 325 l 237 307 m 399 564 q 334 554 361 564 q 289 529 307 545 q 260 493 271 513 q 243 450 249 473 l 536 450 q 523 494 532 473 q 498 530 514 514 q 459 554 483 545 q 399 564 435 564 z "},"i":{"ha":536,"x_min":54,"x_max":467,"o":"m 54 703 l 370 703 l 370 186 l 467 186 l 467 0 l 54 0 l 54 186 l 160 186 l 160 517 l 54 517 l 54 703 m 149 929 q 158 976 149 954 q 184 1015 168 998 q 222 1040 200 1031 q 270 1050 244 1050 q 316 1040 294 1050 q 354 1015 338 1031 q 380 976 370 998 q 389 929 389 954 q 380 882 389 904 q 354 844 370 860 q 316 818 338 827 q 270 808 294 808 q 222 818 244 808 q 184 844 200 827 q 158 882 168 860 q 149 929 149 904 z "},"n":{"ha":990,"x_min":54,"x_max":953,"o":"m 632 404 q 601 497 632 463 q 518 530 570 530 q 447 515 483 530 q 377 456 411 499 l 377 186 l 491 186 l 491 0 l 54 0 l 54 186 l 157 186 l 157 517 l 56 517 l 56 703 l 376 703 l 376 641 q 474 695 420 675 q 589 715 529 715 q 785 645 716 715 q 853 437 853 574 l 853 186 l 953 186 l 953 0 l 632 0 l 632 404 z "},"o":{"ha":844,"x_min":49,"x_max":796,"o":"m 49 354 q 77 498 49 431 q 154 615 104 565 q 272 694 203 665 q 422 724 340 724 q 573 694 505 724 q 692 615 642 665 q 769 498 741 565 q 796 354 796 431 q 769 210 796 277 q 693 92 743 142 q 575 12 644 41 q 422 -17 507 -17 q 269 12 338 -17 q 151 92 200 41 q 76 209 102 142 q 49 354 49 277 m 252 354 q 265 280 252 314 q 302 222 279 247 q 356 184 326 198 q 422 171 387 171 q 489 184 458 171 q 543 222 520 197 q 578 280 566 246 q 591 354 591 313 q 578 430 591 396 q 543 488 566 464 q 489 524 520 511 q 422 536 458 536 q 356 524 387 536 q 302 488 326 511 q 265 430 279 464 q 252 354 252 396 z "},"r":{"ha":753,"x_min":49,"x_max":692,"o":"m 692 447 l 501 447 l 501 519 q 450 516 473 519 q 410 503 427 512 q 381 479 393 494 q 364 440 369 463 l 364 186 l 507 186 l 507 0 l 49 0 l 49 186 l 154 186 l 154 517 l 50 517 l 50 703 l 363 703 l 363 653 q 430 690 393 677 q 511 703 467 703 q 604 702 556 703 q 692 701 651 701 l 692 447 z "},"w":{"ha":1287,"x_min":28,"x_max":1260,"o":"m 28 703 l 395 703 l 395 517 l 315 517 l 390 267 l 534 703 l 733 703 l 879 244 l 968 517 l 893 517 l 893 703 l 1260 703 l 1260 517 l 1166 517 l 978 -3 l 775 -3 l 628 446 l 478 -3 l 281 -3 l 106 517 l 28 517 l 28 703 z "},"x":{"ha":838,"x_min":41,"x_max":796,"o":"m 465 186 l 505 186 l 418 269 l 327 186 l 372 186 l 372 0 l 41 0 l 41 186 l 111 186 l 286 357 l 124 517 l 41 517 l 41 703 l 372 703 l 372 517 l 340 517 l 422 444 l 501 517 l 464 517 l 464 703 l 794 703 l 794 517 l 717 517 l 555 356 l 726 186 l 796 186 l 796 0 l 465 0 l 465 186 z "},"!":{"ha":472,"x_min":94,"x_max":345,"o":"m 94 98 q 103 145 94 123 q 129 184 113 168 q 167 210 145 201 q 215 220 189 220 q 261 210 239 220 q 300 184 283 201 q 326 145 316 168 q 335 98 335 123 q 326 51 335 73 q 300 13 316 29 q 261 -13 283 -3 q 215 -22 239 -22 q 167 -13 189 -22 q 129 13 145 -3 q 103 51 113 29 q 94 98 94 73 m 94 1069 l 345 1069 l 317 346 l 122 346 l 94 1069 z "},"'":{"ha":231,"x_min":25,"x_max":220,"o":"m 174 718 l 25 718 l 25 1069 l 220 1080 l 174 718 z "},":":{"ha":366,"x_min":49,"x_max":289,"o":"m 49 615 q 58 662 49 640 q 83 701 67 684 q 122 726 100 717 q 170 736 144 736 q 216 726 194 736 q 254 701 237 717 q 279 662 270 684 q 289 615 289 640 q 279 568 289 590 q 254 530 270 546 q 216 504 237 513 q 170 494 194 494 q 122 504 144 494 q 83 530 100 513 q 58 568 67 546 q 49 615 49 590 m 49 98 q 58 145 49 123 q 83 184 67 168 q 122 210 100 201 q 170 220 144 220 q 216 210 194 220 q 254 184 237 201 q 279 145 270 168 q 289 98 289 123 q 279 51 289 73 q 254 13 270 29 q 216 -13 237 -3 q 170 -22 194 -22 q 122 -13 144 -22 q 83 13 100 -3 q 58 51 67 29 q 49 98 49 73 z "}}}
